<mxfile host="app.diagrams.net" modified="2020-09-09T00:42:41.608Z" agent="5.0 (Windows NT 10.0; Win64; x64) AppleWebKit/537.36 (KHTML, like Gecko) Chrome/84.0.4147.135 Safari/537.36" etag="yxHGYe6WEIDZtZ0NUvps" version="13.6.9" type="github">
  <diagram id="jiScbWYllQZevQ-Ml413" name="Page-1">
    <mxGraphModel dx="1662" dy="762" grid="0" gridSize="10" guides="1" tooltips="1" connect="1" arrows="1" fold="1" page="1" pageScale="1" pageWidth="827" pageHeight="1169" background="#FFFFFF" math="0" shadow="0">
      <root>
        <mxCell id="0" />
        <mxCell id="1" parent="0" />
        <mxCell id="fvUqn2fG3VvdqL5xDgRX-252" value="" style="edgeStyle=orthogonalEdgeStyle;orthogonalLoop=1;jettySize=auto;html=1;curved=1;" parent="1" source="fvUqn2fG3VvdqL5xDgRX-250" target="fvUqn2fG3VvdqL5xDgRX-251" edge="1">
          <mxGeometry relative="1" as="geometry" />
        </mxCell>
        <mxCell id="fvUqn2fG3VvdqL5xDgRX-255" value="" style="edgeStyle=orthogonalEdgeStyle;orthogonalLoop=1;jettySize=auto;html=1;curved=1;" parent="1" source="fvUqn2fG3VvdqL5xDgRX-250" target="fvUqn2fG3VvdqL5xDgRX-254" edge="1">
          <mxGeometry relative="1" as="geometry" />
        </mxCell>
        <mxCell id="fvUqn2fG3VvdqL5xDgRX-250" value="&lt;b style=&quot;font-size: 12px;&quot;&gt;既存&lt;/b&gt;トライアル会員" style="whiteSpace=wrap;html=1;fillColor=#dae8fc;strokeColor=#6c8ebf;rounded=1;fontSize=12;" parent="1" vertex="1">
          <mxGeometry x="150" y="230" width="120" height="60" as="geometry" />
        </mxCell>
        <mxCell id="fvUqn2fG3VvdqL5xDgRX-251" value="日向2店舗会員" style="whiteSpace=wrap;html=1;rounded=1;fillColor=#1ba1e2;strokeColor=#006EAF;fontColor=#ffffff;" parent="1" vertex="1">
          <mxGeometry x="370" y="260" width="120" height="60" as="geometry" />
        </mxCell>
        <mxCell id="fvUqn2fG3VvdqL5xDgRX-254" value="流失＆離反" style="ellipse;shape=cloud;whiteSpace=wrap;html=1;rounded=1;" parent="1" vertex="1">
          <mxGeometry x="150" y="320" width="120" height="80" as="geometry" />
        </mxCell>
        <mxCell id="fvUqn2fG3VvdqL5xDgRX-257" style="edgeStyle=orthogonalEdgeStyle;orthogonalLoop=1;jettySize=auto;html=1;entryX=1;entryY=0.5;entryDx=0;entryDy=0;curved=1;" parent="1" source="fvUqn2fG3VvdqL5xDgRX-256" target="fvUqn2fG3VvdqL5xDgRX-251" edge="1">
          <mxGeometry relative="1" as="geometry" />
        </mxCell>
        <mxCell id="fvUqn2fG3VvdqL5xDgRX-260" value="" style="edgeStyle=orthogonalEdgeStyle;orthogonalLoop=1;jettySize=auto;html=1;curved=1;" parent="1" source="fvUqn2fG3VvdqL5xDgRX-256" target="fvUqn2fG3VvdqL5xDgRX-259" edge="1">
          <mxGeometry relative="1" as="geometry" />
        </mxCell>
        <mxCell id="fvUqn2fG3VvdqL5xDgRX-256" value="&lt;b&gt;新規&lt;/b&gt;トライアル会員" style="whiteSpace=wrap;html=1;fillColor=#dae8fc;strokeColor=#6c8ebf;rounded=1;" parent="1" vertex="1">
          <mxGeometry x="590" y="230" width="120" height="60" as="geometry" />
        </mxCell>
        <mxCell id="fvUqn2fG3VvdqL5xDgRX-259" value="離反" style="ellipse;shape=cloud;whiteSpace=wrap;html=1;rounded=1;" parent="1" vertex="1">
          <mxGeometry x="590" y="320" width="120" height="80" as="geometry" />
        </mxCell>
        <mxCell id="fvUqn2fG3VvdqL5xDgRX-261" value="&lt;b&gt;旧日向閉店前6ヶ月中に来店した&lt;/b&gt;" style="text;html=1;strokeColor=none;fillColor=none;align=center;verticalAlign=middle;whiteSpace=wrap;rounded=1;fontFamily=Helvetica;" parent="1" vertex="1">
          <mxGeometry x="155" y="190" width="110" height="30" as="geometry" />
        </mxCell>
        <mxCell id="fvUqn2fG3VvdqL5xDgRX-262" value="&lt;b&gt;旧日向閉店前6ヶ月中に来店しなかった&lt;/b&gt;" style="text;html=1;strokeColor=none;fillColor=none;align=center;verticalAlign=middle;whiteSpace=wrap;rounded=1;" parent="1" vertex="1">
          <mxGeometry x="595" y="180" width="115" height="30" as="geometry" />
        </mxCell>
        <mxCell id="fvUqn2fG3VvdqL5xDgRX-266" style="edgeStyle=orthogonalEdgeStyle;curved=1;rounded=0;orthogonalLoop=1;jettySize=auto;html=1;entryX=0.55;entryY=0.95;entryDx=0;entryDy=0;entryPerimeter=0;shape=link;dashed=1;" parent="1" source="fvUqn2fG3VvdqL5xDgRX-263" target="fvUqn2fG3VvdqL5xDgRX-254" edge="1">
          <mxGeometry relative="1" as="geometry">
            <Array as="points">
              <mxPoint x="330" y="160" />
              <mxPoint x="80" y="160" />
              <mxPoint x="80" y="420" />
              <mxPoint x="216" y="420" />
            </Array>
          </mxGeometry>
        </mxCell>
        <mxCell id="fvUqn2fG3VvdqL5xDgRX-263" value="安定" style="ellipse;shape=cloud;whiteSpace=wrap;html=1;rounded=1;" parent="1" vertex="1">
          <mxGeometry x="270" y="180" width="120" height="80" as="geometry" />
        </mxCell>
        <mxCell id="fvUqn2fG3VvdqL5xDgRX-267" style="edgeStyle=orthogonalEdgeStyle;curved=1;rounded=0;orthogonalLoop=1;jettySize=auto;html=1;shape=link;dashed=1;" parent="1" source="fvUqn2fG3VvdqL5xDgRX-265" target="fvUqn2fG3VvdqL5xDgRX-259" edge="1">
          <mxGeometry relative="1" as="geometry">
            <Array as="points">
              <mxPoint x="530" y="160" />
              <mxPoint x="760" y="160" />
              <mxPoint x="760" y="410" />
              <mxPoint x="650" y="410" />
            </Array>
          </mxGeometry>
        </mxCell>
        <mxCell id="fvUqn2fG3VvdqL5xDgRX-265" value="安定" style="ellipse;shape=cloud;whiteSpace=wrap;html=1;rounded=1;" parent="1" vertex="1">
          <mxGeometry x="470" y="180" width="120" height="80" as="geometry" />
        </mxCell>
        <mxCell id="fvUqn2fG3VvdqL5xDgRX-271" value="&lt;b&gt;比較&lt;/b&gt;" style="text;html=1;strokeColor=none;fillColor=none;align=center;verticalAlign=middle;whiteSpace=wrap;rounded=0;fontFamily=Helvetica;fontColor=#007FFF;labelBackgroundColor=#FFFFFF;labelBorderColor=none;" parent="1" vertex="1">
          <mxGeometry x="60" y="261" width="43" height="29" as="geometry" />
        </mxCell>
        <mxCell id="fvUqn2fG3VvdqL5xDgRX-273" value="&lt;b&gt;比較&lt;/b&gt;" style="text;html=1;strokeColor=none;fillColor=none;align=center;verticalAlign=middle;whiteSpace=wrap;rounded=0;fontFamily=Helvetica;fontColor=#007FFF;labelBackgroundColor=#FFFFFF;labelBorderColor=none;" parent="1" vertex="1">
          <mxGeometry x="739" y="271" width="43" height="29" as="geometry" />
        </mxCell>
      </root>
    </mxGraphModel>
  </diagram>
</mxfile>
